<?xml version="1.0" standalone="no"?><!DOCTYPE svg PUBLIC "-//W3C//DTD SVG 1.1//EN" "http://www.w3.org/Graphics/SVG/1.1/DTD/svg11.dtd"><svg t="1546070177211" class="icon" style="" viewBox="0 0 1024 1024" version="1.1" xmlns="http://www.w3.org/2000/svg" p-id="1622" xmlns:xlink="http://www.w3.org/1999/xlink" width="200" height="200"><defs><style type="text/css"></style></defs><path d="M953.7 408.7c45.4-45.2 70.3-105.3 70.3-169.3s-25-124.1-70.3-169.3C908.3 24.9 848.1 0 784 0S659.7 24.9 614.3 70.1C569 115.3 544 175.4 544 239.4v240.8l240.1-1.4c64.1-0.1 124.3-25 169.6-70.1zM608 415.8V239.4C608 142.7 687 64 784 64s176 78.7 176 175.4-79 175.4-176 175.4l-176 1zM240 0C186.5 0 135.8 17.2 93.5 49.7c-41 31.5-71.1 76.1-84.8 125.6-4.7 17 5.2 34.7 22.3 39.4 17 4.7 34.7-5.2 39.4-22.3C91.4 116.8 161.1 64 240 64c97 0 176 78.7 176 175.4v176.4l-175.8-1h-0.2c-77.1 0-144.6-49.2-167.8-122.4-5.4-16.8-23.3-26.2-40.2-20.8-16.8 5.4-26.2 23.3-20.8 40.2 15.3 48.1 44.9 89.5 85.7 119.8 41.6 30.8 91 47.2 143 47.2l240.1 1.4V239.4c0-64-25-124.1-70.3-169.3C364.3 24.9 304.1 0 240 0z m544.1 545.2L544 543.8v240.8c0 64 25 124.1 70.3 169.3 45.3 45.2 105.6 70.1 169.7 70.1s124.3-24.9 169.7-70.1c45.4-45.2 70.3-105.3 70.3-169.3s-25-124.1-70.3-169.3c-45.3-45.1-105.5-70-169.6-70.1zM784 960c-97 0-176-78.7-176-175.4V608.2l175.8 1h0.2c97 0 176 78.7 176 175.4S881 960 784 960zM448 752.6c-17.7 0-32 14.3-32 32 0 13.9-1.6 27.8-4.9 41.1-4.1 17.2 6.4 34.5 23.6 38.6 2.5 0.6 5 0.9 7.5 0.9 14.4 0 27.5-9.8 31.1-24.5 4.4-18.3 6.6-37.2 6.6-56.1 0.1-17.7-14.2-32-31.9-32z" p-id="1623"></path><path d="M70.3 615.3C25 660.5 0 720.7 0 784.6s25 124.1 70.3 169.3c45.3 45.2 105.6 70.1 169.7 70.1 68.6 0 134.1-29.4 179.6-80.6 11.7-13.2 10.5-33.4-2.7-45.2-13.2-11.7-33.4-10.5-45.2 2.7C338.4 938.4 290.4 960 240 960c-97 0-176-78.7-176-175.4s79-175.4 176-175.4l176-1v56.7c0 17.7 14.3 32 32 32s32-14.3 32-32V543.8l-240.1 1.4c-64.1 0.1-124.3 25-169.6 70.1z" p-id="1624"></path></svg>