<?xml version="1.0" standalone="no"?><!DOCTYPE svg PUBLIC "-//W3C//DTD SVG 1.1//EN" "http://www.w3.org/Graphics/SVG/1.1/DTD/svg11.dtd"><svg t="1546070253092" class="icon" style="" viewBox="0 0 1024 1024" version="1.1" xmlns="http://www.w3.org/2000/svg" p-id="5215" xmlns:xlink="http://www.w3.org/1999/xlink" width="200" height="200"><defs><style type="text/css"></style></defs><path d="M368.071472 533.396309c106.49036 0 193.127556-86.532819 193.127556-192.894242 0-106.361423-86.637196-192.892195-193.127556-192.892195s-193.127556 86.530772-193.127556 192.892195C174.943916 446.864514 261.581112 533.396309 368.071472 533.396309zM368.071472 198.833511c78.246085 0 141.903917 63.552431 141.903917 141.668557 0 78.117149-63.657832 141.670603-141.903917 141.670603s-141.903917-63.553455-141.903917-141.670603C226.167554 262.385942 289.825386 198.833511 368.071472 198.833511zM782.219863 538.397207c50.315966-21.135366 85.73771-70.876234 85.73771-128.72885 0-76.960813-62.683644-139.572826-139.732461-139.572826-77.047794 0-139.731438 62.612013-139.731438 139.572826 0 62.971194 41.96988 116.327402 99.43057 133.647883-44.6315 12.485359-84.175121 39.092343-112.36516 75.757404-56.391335-53.006238-129.938398-82.102926-207.992101-82.102926-80.691787 0-156.566872 31.094182-213.649961 87.555102C96.759229 681.059394 65.280284 756.248863 65.280284 836.240709c0 5.131881 0.132006 10.311857 0.39295 15.397688l1.24741 24.298406 601.292676 0 1.249457-24.296359c0.261966-5.090948 0.394996-10.270924 0.394996-15.399735 0-18.185174-1.644453-36.116569-4.830005-53.641711l293.554826 0 1.245364-24.301476c0.184195-3.605108 0.277316-7.274684 0.277316-10.906397C960.105273 642.693598 883.088178 555.488467 782.219863 538.397207zM639.717312 409.668357c0-48.715515 39.70428-88.348164 88.5078-88.348164s88.508823 39.632649 88.508823 88.348164c0 48.716538-39.705304 88.350211-88.508823 88.350211S639.717312 458.384895 639.717312 409.668357zM116.771005 824.713164c6.118348-131.441635 116.272143-236.519832 250.797-236.519832 134.525879 0 244.678652 105.078197 250.798023 236.519832L116.771005 824.713164zM650.842697 731.37536c-9.827833-26.061562-23.337521-50.705845-40.300868-73.281003C640.439766 613.945857 691.071933 586.572416 746.008126 586.572416c84.33885 0 153.910369 63.61383 162.073282 144.802944L650.842697 731.37536z" p-id="5216"></path></svg>